<svg id="Laag_1" data-name="Laag 1" xmlns="http://www.w3.org/2000/svg" viewBox="0 0 1839.59 1772">
<defs><style>.cls-1{fill:#662d91;}.cls-2{fill:#fff;}.cls-2,.cls-3{opacity:0.5;}</style></defs>
<path fill="currentColor" class="cls-1" d="M689.27-282.1s-52.27-2-120.42-.81C641.4-445.07,689-602.8,689-602.8L408.7-443.7c15.35,17.88,24.05,38.08,24.05,59.49,0,34.34-22.26,65.62-58.74,89.12a198.07,198.07,0,0,1,35.37,113.26c0,109.9-89.09,199-199,199s-199-89.1-199-199A198.07,198.07,0,0,1,45.51-293.29C7.34-317-16.09-349-16.09-384.21c0-22.47,9.56-43.62,26.36-62.14L-265.37-602.8S-217.59-444.49-144.82-282c-69.49-1.3-123.16.75-123.16.75s149.31,188.59,253.35,260c-36.61,86.78-59.94,164-59.94,164L88,50.54c11.4,6,22.85,10.44,34.35,12.74,0,0,59.65,318.12-99.42,357.89H400.71C241.65,381.4,301.29,63.28,301.29,63.28c11.81-2.36,23.58-6.93,35.28-13.18l163.34,92.71S476.06,63.87,438.77-24C542.66-96.93,689.27-282.1,689.27-282.1Z" transform="translate(709.16 1350.83)"/>
<circle fill="currentColor" class="cls-1" cx="919.54" cy="1170.5" r="178.5"/><circle class="cls-2" cx="919.04" cy="1170.5" r="178.5"/>
<path fill="currentColor" class="cls-1" d="M210.05-429.91c13.56,0,24.79-6.62,26.74-15.25,19.58-35.17,21.32-97.45,21.32-97.45A525.57,525.57,0,0,1,230.35-483c-8-36.52-20.19-87.79-20.19-87.79s-12.41,51.7-20.45,88.25a526.27,526.27,0,0,1-28-60s1.77,63.47,21.88,98.45C186.13-436,197-429.91,210.05-429.91Z" transform="translate(709.16 1350.83)"/>
<path fill="currentColor" class="cls-1" d="M1128.87-1206.06a312.9,312.9,0,0,0-5.3-31l-1.88-7.6-1-3.8-1.08-3.76-2.19-7.52-2.43-7.43-1.23-3.7-1.35-3.67-2.7-7.32-3-7.22-1.48-3.61c-.5-1.2-1.06-2.38-1.58-3.56a392.71,392.71,0,0,0-29.66-54.61,390.87,390.87,0,0,1,26.82,55.77c.46,1.2,1,2.39,1.4,3.61l1.28,3.64,2.56,7.28,2.31,7.36,1.15,3.68,1,3.71,2,7.43,1.78,7.49.88,3.74.75,3.77,1.47,7.54a300.85,300.85,0,0,1,3.67,30.42,251.83,251.83,0,0,1,0,30.47,189.19,189.19,0,0,1-4.29,29.92,146.28,146.28,0,0,1-9.39,28.29,101.67,101.67,0,0,1-15.48,24.56,66.37,66.37,0,0,1-22.08,16.77,69,69,0,0,1-13.25,4.42,92.57,92.57,0,0,1-14.07,2.15,123.79,123.79,0,0,1-14.42.19c-4.83-.28-9.66-.78-14.45-1.52a150,150,0,0,1-54.2-20,119.65,119.65,0,0,1-22.3-17.5l-2.43-2.51c-.78-.85-1.5-1.75-2.25-2.62l-2.24-2.61c-.74-.88-1.35-1.83-2-2.73l-2-2.73-1.76-2.87c-.56-1-1.22-1.87-1.71-2.88l-1.54-3c-4.08-8-6.59-17.05-9.55-27.12s-6.71-21.21-12.39-31.49a42.31,42.31,0,0,0-2.2-3.81l-2.31-3.75c-.74-1.27-1.64-2.41-2.48-3.61l-2.56-3.55c-.83-1.21-1.78-2.29-2.7-3.42l-2.77-3.36c-1.9-2.19-3.93-4.26-5.9-6.39a147.6,147.6,0,0,0-27-21.4,185.78,185.78,0,0,0-30.32-15.16,240.31,240.31,0,0,0-31.89-9.84,283.27,283.27,0,0,0-32.58-5.59c-5.47-.62-11-1.09-16.47-1.4s-11-.46-16.79-.39c-23.5.43-46.15,6-67.16,14.36a283.56,283.56,0,0,0-58.44,32.37,408,408,0,0,0-50.11,42.36,527.27,527.27,0,0,0-43.25,48.5,657.69,657.69,0,0,0-69.21,109A703.88,703.88,0,0,0,387.51-903.1a651.68,651.68,0,0,0-15.25,63.37c-2,10.72-3.86,21.5-5.13,32.37-.67,5.43-1.43,10.85-2,16.3l-1.47,16.36c-1.64,21.83-2.22,43.75-1.73,65.57s2.19,43.5,4.51,64.91,5.35,42.56,8.63,63.34,6.78,41.15,9.82,61.11C391-479.9,395.21-441.58,391.12-407a196.37,196.37,0,0,1-12,49.3l-2.25,5.85-2.69,5.71-2.64,5.71-.49.9c-23.24-73.25-86.23-152.58-86.23-152.58s34.18,61.77,52.87,144a209.44,209.44,0,0,0-127.25-42.84A209.49,209.49,0,0,0,82.12-347.28c18.65-82.63,53.06-144.81,53.06-144.81S73.07-413.86,49.44-341l-2.34-5.07-2.69-5.71-2.26-5.85a196.79,196.79,0,0,1-12-49.3c-4.09-34.6.15-72.92,6.23-112.79,3-20,6.54-40.36,9.82-61.11s6.33-41.92,8.64-63.34,3.9-43.1,4.51-64.91-.09-43.74-1.73-65.57l-1.48-16.36c-.57-5.45-1.33-10.87-2-16.3C52.88-818.23,51-829,49-839.73A651.68,651.68,0,0,0,33.77-903.1,703.1,703.1,0,0,0-14-1023.31a658.29,658.29,0,0,0-69.2-109,530.22,530.22,0,0,0-43.25-48.5,408,408,0,0,0-50.11-42.36c-18-12.74-37.42-24-58.45-32.37s-43.66-13.93-67.15-14.36c-5.77-.07-11.26.08-16.79.39s-11,.78-16.47,1.4a282.9,282.9,0,0,0-32.58,5.59,240.45,240.45,0,0,0-31.9,9.84,186.58,186.58,0,0,0-30.32,15.16,147.87,147.87,0,0,0-27,21.4c-2,2.13-4,4.2-5.9,6.39l-2.78,3.36c-.91,1.13-1.86,2.21-2.69,3.42l-2.56,3.55c-.84,1.2-1.74,2.34-2.48,3.61l-2.32,3.75c-.77,1.24-1.54,2.49-2.2,3.81-5.68,10.28-9.47,21.4-12.38,31.49s-5.47,19.17-9.55,27.12l-1.54,3c-.49,1-1.15,1.92-1.72,2.88l-1.76,2.87-2,2.73c-.68.9-1.29,1.85-2,2.73l-2.24,2.61c-.76.87-1.47,1.77-2.26,2.62l-2.42,2.51a119.65,119.65,0,0,1-22.3,17.5,150,150,0,0,1-54.2,20q-7.2,1.11-14.45,1.52a123.73,123.73,0,0,1-14.42-.19,92.7,92.7,0,0,1-14.08-2.15,68.86,68.86,0,0,1-13.24-4.42,66.17,66.17,0,0,1-22.08-16.77,102,102,0,0,1-15.49-24.56,146.93,146.93,0,0,1-9.38-28.29,190.37,190.37,0,0,1-4.3-29.92,256,256,0,0,1,0-30.47,303.74,303.74,0,0,1,3.67-30.42l1.48-7.54.74-3.77.89-3.74,1.78-7.49,2-7.43,1-3.71,1.16-3.68,2.3-7.36,2.57-7.28,1.28-3.64c.44-1.22.93-2.41,1.4-3.61a390.87,390.87,0,0,1,26.82-55.77,392.71,392.71,0,0,0-29.66,54.61c-.52,1.18-1.08,2.36-1.58,3.56l-1.48,3.61-3,7.22-2.7,7.32-1.35,3.67-1.23,3.7-2.44,7.43-2.18,7.52-1.08,3.76-1,3.8-1.88,7.6a310,310,0,0,0-5.29,31,260.73,260.73,0,0,0-1.54,31.52,199.72,199.72,0,0,0,3,31.65,158.74,158.74,0,0,0,8.62,31,114.75,114.75,0,0,0,16.16,28.57,80.83,80.83,0,0,0,26,21.74,84.42,84.42,0,0,0,15.85,6.2,110.34,110.34,0,0,0,16.43,3.36,141.76,141.76,0,0,0,16.57,1c5.51,0,11-.34,16.47-.91a169.8,169.8,0,0,0,62.55-19.72,142.53,142.53,0,0,0,27.4-19.43L-497-1094c1-1,2-2.07,3-3.11l3-3.14c1-1.06,1.85-2.24,2.78-3.36l2.74-3.41,2.51-3.62c.81-1.22,1.71-2.39,2.43-3.67l2.22-3.8c.36-.64.74-1.27,1.09-1.91l1-2,1.93-3.91c.6-1.31,1.14-2.61,1.7-3.92s1.14-2.63,1.61-3.92l1.48-3.88c.49-1.3.9-2.54,1.36-3.8l2.58-7.41c3.31-9.62,6.75-18,11.47-25.66a99.63,99.63,0,0,1,17.29-20.76,118.78,118.78,0,0,1,22.38-16,155.84,155.84,0,0,1,25.73-11.28,206.82,206.82,0,0,1,27.77-7.06,246.57,246.57,0,0,1,28.78-3.48c4.83-.31,9.68-.49,14.5-.51s9.66.08,14.23.37a136.36,136.36,0,0,1,26.81,4.67,173.05,173.05,0,0,1,26.12,9.59,242.46,242.46,0,0,1,48.45,30.14c30.39,24,56.81,53.75,79.76,85.9A605.45,605.45,0,0,1-63.76-999.51,645.65,645.65,0,0,1-25.44-887.24,588.47,588.47,0,0,1-14.5-829.33c1.28,9.7,2.51,19.39,3.14,29.13.35,4.86.8,9.71,1.07,14.58L-9.7-771q.72,29.22-1.36,58.49c-1.52,19.52-3.91,39-7,58.65s-6.91,39.27-11.08,59.2-8.67,40.14-12.9,60.92-8.18,42.14-10.86,64.44a378.74,378.74,0,0,0-2.44,69.52A284.66,284.66,0,0,0-41.65-328l2.94,8.77,3.43,8.55,3.49,8.53,4,8.26,4,8.25c1.43,2.67,2.94,5.29,4.41,7.94l4.46,7.91c1.49,2.65,3.16,5.13,4.74,7.7,5.54,8.78,11.52,17.25,17.86,25.41A210.42,210.42,0,0,0,0-180.54,209.87,209.87,0,0,0,70.92-23.06,419.39,419.39,0,0,1,23.28,49.61C2.35,75.22-21.84,98-48.45,116.12c-6.63,4.59-13.48,8.7-20.38,12.67-1.73,1-3.49,1.86-5.24,2.8s-3.48,1.92-5.26,2.74l-5.32,2.55c-.89.42-1.77.87-2.66,1.26L-90,139.29a195.37,195.37,0,0,1-43.82,13.65c-1.84.31-3.69.69-5.53,1l-5.53.69c-.93.11-1.85.26-2.77.33l-2.76.19c-1.83.12-3.68.3-5.51.39l-5.49.09c-.91,0-1.84.07-2.74,0l-2.72-.11c-1.82-.09-3.64-.1-5.45-.23l-5.4-.52a142,142,0,0,1-21.32-4,152.34,152.34,0,0,1-20.76-7.52c-13.66-6-26.68-14.44-39-24.32a244.44,244.44,0,0,1-34.15-34.43C-313.89,58.87-331,28.92-344.43-2.81A435.09,435.09,0,0,1-373-102.48a372.37,372.37,0,0,1-4.67-51.44,273.33,273.33,0,0,1,3.6-50.45,185.25,185.25,0,0,1,5.74-23.8q1.82-5.75,4-11.21c1.53-3.66,3-7,5-10.85,3.95-7.66,8.69-16.26,13-25s8.35-17.85,11.92-27q2.67-6.87,5.09-13.8l2.33-6.92,2.17-6.73c2.89-9,5.62-18.23,8.12-27.48a451.18,451.18,0,0,0,11.72-56.7c2.57-19.33,3.8-39.18,1.61-59.6a136.68,136.68,0,0,0-6.81-30.75,92.19,92.19,0,0,0-16.35-29,90.15,90.15,0,0,0-25.82-20.54,129.13,129.13,0,0,0-29-11.22c-19.67-5.09-39.49-6.35-58.92-5.48a257.26,257.26,0,0,0-28.89,3,280.32,280.32,0,0,0-28.23,6A285.61,285.61,0,0,0-551-541.3a257.91,257.91,0,0,0-48.19,30.84,219.21,219.21,0,0,0-39.35,41.39,193.1,193.1,0,0,0-15,24.31,191.36,191.36,0,0,0-11.29,26.08,218,218,0,0,0-7.53,27.26,232.83,232.83,0,0,0-3.86,27.87,265,265,0,0,0,1.69,55.83A289.93,289.93,0,0,0-662-253.63,288,288,0,0,1-671.44-308a260.37,260.37,0,0,1,1.35-54.85,224.4,224.4,0,0,1,5.24-26.79,208.85,208.85,0,0,1,8.65-25.72,180.69,180.69,0,0,1,12.08-24.14,181,181,0,0,1,15.32-22.08,205.55,205.55,0,0,1,38.95-36.69,241.49,241.49,0,0,1,46.58-26.3c8.2-3.52,16.58-6.62,25.08-9.3s17.14-4.9,25.84-6.71a254.59,254.59,0,0,1,26.27-4.08A230.61,230.61,0,0,1-439.72-546c17.49.16,34.89,2.37,50.8,7.47a100.47,100.47,0,0,1,22.11,10,60.08,60.08,0,0,1,16.58,14.68c8.53,11.27,12.46,26.82,13.31,43.22s-1.05,33.72-4.31,50.85a413.92,413.92,0,0,1-13.6,51.18q-4.2,12.69-9,25.25l-2.44,6.35-2.44,6.09q-2.49,6-5.17,11.95c-3.59,7.88-7.53,15.52-11.77,23.1s-8.86,15-13.87,23.48c-2.53,4.26-5.12,9.17-7.4,13.93s-4.33,9.66-6.19,14.55a235.75,235.75,0,0,0-8.94,29.62,324.19,324.19,0,0,0-7.67,59.71,426.91,426.91,0,0,0,2.05,59.15A493.41,493.41,0,0,0-401.6,19.31c13.32,37.14,31.13,73.19,55.22,106.28A313.56,313.56,0,0,0-305,172.12c15.71,14.18,33.25,27.1,52.91,37.18a226.33,226.33,0,0,0,30.65,13.1,216,216,0,0,0,32.7,8.18l8.34,1.29c2.79.35,5.58.58,8.37.86l4.19.39c1.4.12,2.79.14,4.19.21l8.37.33c2.78,0,5.56,0,8.34-.08l4.17-.07c1.39,0,2.75-.16,4.14-.24l8.27-.57c2.74-.25,5.46-.61,8.19-.92a276.16,276.16,0,0,0,62.87-15.62l3.76-1.38c1.25-.47,2.46-1,3.7-1.5l7.36-3c2.47-1,4.82-2.16,7.24-3.25s4.82-2.19,7.19-3.34c9.42-4.7,18.7-9.63,27.61-15.06C33.31,167,65,140.18,92.57,110.06a514.42,514.42,0,0,0,64.15-87.12,210.5,210.5,0,0,0,53.72,6.93,210.3,210.3,0,0,0,57.79-8A514.44,514.44,0,0,0,333,110.06c27.6,30.12,59.27,57,95,78.53C437,194,446.26,199,455.68,203.65c2.36,1.15,4.79,2.23,7.18,3.34s4.77,2.26,7.24,3.25l7.36,3c1.24.5,2.45,1,3.7,1.5l3.76,1.38a276.16,276.16,0,0,0,62.87,15.62c2.73.31,5.45.67,8.19.92l8.27.57c1.39.08,2.76.2,4.14.24l4.17.07c2.79,0,5.56.1,8.34.08l8.37-.33c1.4-.07,2.79-.09,4.19-.21l4.19-.39c2.79-.28,5.58-.51,8.37-.86l8.34-1.29a216,216,0,0,0,32.7-8.18,226.33,226.33,0,0,0,30.65-13.1c19.66-10.08,37.2-23,52.91-37.18A314.2,314.2,0,0,0,772,125.59c24.08-33.09,41.89-69.14,55.21-106.28A493.41,493.41,0,0,0,853.27-95.43a426.91,426.91,0,0,0,2.05-59.15,324.19,324.19,0,0,0-7.67-59.71,235.75,235.75,0,0,0-8.94-29.62c-1.86-4.89-3.91-9.75-6.19-14.55s-4.87-9.67-7.39-13.93c-5-8.51-9.63-15.86-13.88-23.48s-8.18-15.22-11.77-23.1q-2.68-5.91-5.17-11.95L791.87-337l-2.44-6.35q-4.81-12.58-9-25.25a413.92,413.92,0,0,1-13.6-51.18c-3.26-17.13-5.18-34.39-4.31-50.85s4.78-31.95,13.31-43.22a60.08,60.08,0,0,1,16.58-14.68,100.47,100.47,0,0,1,22.11-10c15.91-5.1,33.31-7.31,50.8-7.47a230.61,230.61,0,0,1,26.36,1.25,254.59,254.59,0,0,1,26.27,4.08q13,2.71,25.84,6.71c8.5,2.68,16.88,5.78,25.08,9.3a241.19,241.19,0,0,1,46.58,26.3,205.55,205.55,0,0,1,39,36.69,181,181,0,0,1,15.32,22.08,180.69,180.69,0,0,1,12.08,24.14,208.85,208.85,0,0,1,8.65,25.72,224.4,224.4,0,0,1,5.24,26.79A260.37,260.37,0,0,1,1097-308a287.25,287.25,0,0,1-9.47,54.42,289.93,289.93,0,0,0,12.52-54.09,265,265,0,0,0,1.69-55.83,232.83,232.83,0,0,0-3.86-27.87,216.3,216.3,0,0,0-7.53-27.26,191.36,191.36,0,0,0-11.29-26.08,193.1,193.1,0,0,0-14.95-24.31,219.21,219.21,0,0,0-39.35-41.39A257.91,257.91,0,0,0,976.6-541.3a285.61,285.61,0,0,0-53.69-20.21,280.32,280.32,0,0,0-28.23-6,257.26,257.26,0,0,0-28.89-3c-19.43-.87-39.25.39-58.91,5.48a129,129,0,0,0-29,11.22,90.15,90.15,0,0,0-25.82,20.54,92.19,92.19,0,0,0-16.35,29,136.11,136.11,0,0,0-6.8,30.75c-2.2,20.42-1,40.27,1.6,59.6a451.18,451.18,0,0,0,11.72,56.7c2.5,9.25,5.23,18.43,8.12,27.48l2.17,6.73,2.33,6.92q2.42,6.93,5.09,13.8c3.57,9.17,7.61,18.21,11.93,27s9,17.37,13,25c2,3.81,3.49,7.19,5,10.85s2.82,7.38,4,11.21a185.25,185.25,0,0,1,5.74,23.8,273.33,273.33,0,0,1,3.6,50.45,372.37,372.37,0,0,1-4.67,51.44A435.09,435.09,0,0,1,770-2.81c-13.38,31.73-30.53,61.68-51.49,87.28a243.9,243.9,0,0,1-34.15,34.43c-12.31,9.88-25.33,18.31-39,24.32a152.34,152.34,0,0,1-20.76,7.52,142,142,0,0,1-21.32,4l-5.4.52c-1.81.13-3.63.14-5.45.23l-2.72.11c-.9,0-1.83,0-2.74,0l-5.49-.09c-1.83-.09-3.68-.27-5.51-.39l-2.76-.19c-.92-.07-1.84-.22-2.77-.33l-5.53-.69c-1.84-.27-3.69-.65-5.53-1a195.37,195.37,0,0,1-43.82-13.65l-2.69-1.15c-.89-.39-1.77-.84-2.66-1.26l-5.32-2.55c-1.78-.82-3.51-1.84-5.26-2.74s-3.51-1.83-5.24-2.8c-6.9-4-13.75-8.08-20.38-12.67-26.61-18.14-50.8-40.9-71.73-66.51A420.42,420.42,0,0,1,353.19-26a209.85,209.85,0,0,0,67.66-154.57,210.65,210.65,0,0,0-7.5-55.82c6.45-8.28,12.53-16.86,18.15-25.78,1.58-2.57,3.25-5.05,4.73-7.7l4.47-7.91c1.47-2.65,3-5.27,4.41-7.94l4-8.25,3.95-8.26,3.49-8.53,3.44-8.55,2.94-8.77a284.66,284.66,0,0,0,13.71-71.75,377.84,377.84,0,0,0-2.45-69.52c-2.68-22.3-6.64-43.67-10.85-64.44s-8.73-41-12.9-60.92-8-39.6-11.09-59.2-5.5-39.13-7-58.65-1.84-39-1.35-58.49l.59-14.6c.27-4.87.72-9.72,1.07-14.58.63-9.74,1.86-19.43,3.14-29.13a588.47,588.47,0,0,1,10.94-57.91A646.45,646.45,0,0,1,485-999.51a606.8,606.8,0,0,1,58.64-103.33c23-32.15,49.38-61.92,79.76-85.9,15.19-11.93,31.39-22.33,48.46-30.14a172.66,172.66,0,0,1,26.12-9.59,136.36,136.36,0,0,1,26.81-4.67c4.56-.29,9.42-.4,14.23-.37s9.67.2,14.5.51a246.83,246.83,0,0,1,28.78,3.48,206.82,206.82,0,0,1,27.77,7.06,155.37,155.37,0,0,1,25.72,11.28,118.85,118.85,0,0,1,22.39,16,99.63,99.63,0,0,1,17.29,20.76c4.71,7.64,8.16,16,11.47,25.66l2.58,7.41c.45,1.26.87,2.5,1.36,3.8l1.48,3.88c.47,1.29,1,2.61,1.6,3.92s1.11,2.61,1.7,3.92l1.94,3.91,1,2c.35.64.73,1.27,1.09,1.91l2.22,3.8c.72,1.28,1.62,2.45,2.43,3.67l2.5,3.62,2.74,3.41c.93,1.12,1.81,2.3,2.79,3.36l3,3.14c1,1,2,2.11,3,3.11l3.12,2.92a142.46,142.46,0,0,0,27.39,19.43,169.91,169.91,0,0,0,62.56,19.72c5.46.57,11,.87,16.47.91a141.45,141.45,0,0,0,16.56-1,109.83,109.83,0,0,0,16.43-3.36,83.89,83.89,0,0,0,15.85-6.2,80.86,80.86,0,0,0,26-21.74,114.4,114.4,0,0,0,16.15-28.57,157.36,157.36,0,0,0,8.62-31,198.57,198.57,0,0,0,3-31.65A264.88,264.88,0,0,0,1128.87-1206.06ZM209.88-1.83a178.5,178.5,0,0,1-178.5-178.5,178.5,178.5,0,0,1,178.5-178.5,178.5,178.5,0,0,1,178.5,178.5A178.5,178.5,0,0,1,209.88-1.83Z" transform="translate(709.16 1350.83)"/>
<g class="cls-3">
    <path d="M210.05-429.91c13.56,0,24.79-6.62,26.74-15.25,19.58-35.17,21.32-97.45,21.32-97.45A525.57,525.57,0,0,1,230.35-483c-8-36.52-20.19-87.79-20.19-87.79s-12.41,51.7-20.45,88.25a526.27,526.27,0,0,1-28-60s1.77,63.47,21.88,98.45C186.13-436,197-429.91,210.05-429.91Z" transform="translate(709.16 1350.83)"/>
    <path d="M1128.87-1206.06a312.9,312.9,0,0,0-5.3-31l-1.88-7.6-1-3.8-1.08-3.76-2.19-7.52-2.43-7.43-1.23-3.7-1.35-3.67-2.7-7.32-3-7.22-1.48-3.61c-.5-1.2-1.06-2.38-1.58-3.56a392.71,392.71,0,0,0-29.66-54.61,390.87,390.87,0,0,1,26.82,55.77c.46,1.2,1,2.39,1.4,3.61l1.28,3.64,2.56,7.28,2.31,7.36,1.15,3.68,1,3.71,2,7.43,1.78,7.49.88,3.74.75,3.77,1.47,7.54a300.85,300.85,0,0,1,3.67,30.42,251.83,251.83,0,0,1,0,30.47,189.19,189.19,0,0,1-4.29,29.92,146.28,146.28,0,0,1-9.39,28.29,101.67,101.67,0,0,1-15.48,24.56,66.37,66.37,0,0,1-22.08,16.77,69,69,0,0,1-13.25,4.42,92.57,92.57,0,0,1-14.07,2.15,123.79,123.79,0,0,1-14.42.19c-4.83-.28-9.66-.78-14.45-1.52a150,150,0,0,1-54.2-20,119.65,119.65,0,0,1-22.3-17.5l-2.43-2.51c-.78-.85-1.5-1.75-2.25-2.62l-2.24-2.61c-.74-.88-1.35-1.83-2-2.73l-2-2.73-1.76-2.87c-.56-1-1.22-1.87-1.71-2.88l-1.54-3c-4.08-8-6.59-17.05-9.55-27.12s-6.71-21.21-12.39-31.49a42.31,42.31,0,0,0-2.2-3.81l-2.31-3.75c-.74-1.27-1.64-2.41-2.48-3.61l-2.56-3.55c-.83-1.21-1.78-2.29-2.7-3.42l-2.77-3.36c-1.9-2.19-3.93-4.26-5.9-6.39a147.6,147.6,0,0,0-27-21.4,185.78,185.78,0,0,0-30.32-15.16,240.31,240.31,0,0,0-31.89-9.84,283.27,283.27,0,0,0-32.58-5.59c-5.47-.62-11-1.09-16.47-1.4s-11-.46-16.79-.39c-23.5.43-46.15,6-67.16,14.36a283.56,283.56,0,0,0-58.44,32.37,408,408,0,0,0-50.11,42.36,527.27,527.27,0,0,0-43.25,48.5,657.69,657.69,0,0,0-69.21,109A703.88,703.88,0,0,0,387.51-903.1a651.68,651.68,0,0,0-15.25,63.37c-2,10.72-3.86,21.5-5.13,32.37-.67,5.43-1.43,10.85-2,16.3l-1.47,16.36c-1.64,21.83-2.22,43.75-1.73,65.57s2.19,43.5,4.51,64.91,5.35,42.56,8.63,63.34,6.78,41.15,9.82,61.11C391-479.9,395.21-441.58,391.12-407a196.37,196.37,0,0,1-12,49.3l-2.25,5.85-2.69,5.71-2.64,5.71-.49.9c-23.24-73.25-86.23-152.58-86.23-152.58s34.18,61.77,52.87,144a209.44,209.44,0,0,0-127.25-42.84A209.49,209.49,0,0,0,82.12-347.28c18.65-82.63,53.06-144.81,53.06-144.81S73.07-413.86,49.44-341l-2.34-5.07-2.69-5.71-2.26-5.85a196.79,196.79,0,0,1-12-49.3c-4.09-34.6.15-72.92,6.23-112.79,3-20,6.54-40.36,9.82-61.11s6.33-41.92,8.64-63.34,3.9-43.1,4.51-64.91-.09-43.74-1.73-65.57l-1.48-16.36c-.57-5.45-1.33-10.87-2-16.3C52.88-818.23,51-829,49-839.73A651.68,651.68,0,0,0,33.77-903.1,703.1,703.1,0,0,0-14-1023.31a658.29,658.29,0,0,0-69.2-109,530.22,530.22,0,0,0-43.25-48.5,408,408,0,0,0-50.11-42.36c-18-12.74-37.42-24-58.45-32.37s-43.66-13.93-67.15-14.36c-5.77-.07-11.26.08-16.79.39s-11,.78-16.47,1.4a282.9,282.9,0,0,0-32.58,5.59,240.45,240.45,0,0,0-31.9,9.84,186.58,186.58,0,0,0-30.32,15.16,147.87,147.87,0,0,0-27,21.4c-2,2.13-4,4.2-5.9,6.39l-2.78,3.36c-.91,1.13-1.86,2.21-2.69,3.42l-2.56,3.55c-.84,1.2-1.74,2.34-2.48,3.61l-2.32,3.75c-.77,1.24-1.54,2.49-2.2,3.81-5.68,10.28-9.47,21.4-12.38,31.49s-5.47,19.17-9.55,27.12l-1.54,3c-.49,1-1.15,1.92-1.72,2.88l-1.76,2.87-2,2.73c-.68.9-1.29,1.85-2,2.73l-2.24,2.61c-.76.87-1.47,1.77-2.26,2.62l-2.42,2.51a119.65,119.65,0,0,1-22.3,17.5,150,150,0,0,1-54.2,20q-7.2,1.11-14.45,1.52a123.73,123.73,0,0,1-14.42-.19,92.7,92.7,0,0,1-14.08-2.15,68.86,68.86,0,0,1-13.24-4.42,66.17,66.17,0,0,1-22.08-16.77,102,102,0,0,1-15.49-24.56,146.93,146.93,0,0,1-9.38-28.29,190.37,190.37,0,0,1-4.3-29.92,256,256,0,0,1,0-30.47,303.74,303.74,0,0,1,3.67-30.42l1.48-7.54.74-3.77.89-3.74,1.78-7.49,2-7.43,1-3.71,1.16-3.68,2.3-7.36,2.57-7.28,1.28-3.64c.44-1.22.93-2.41,1.4-3.61a390.87,390.87,0,0,1,26.82-55.77,392.71,392.71,0,0,0-29.66,54.61c-.52,1.18-1.08,2.36-1.58,3.56l-1.48,3.61-3,7.22-2.7,7.32-1.35,3.67-1.23,3.7-2.44,7.43-2.18,7.52-1.08,3.76-1,3.8-1.88,7.6a310,310,0,0,0-5.29,31,260.73,260.73,0,0,0-1.54,31.52,199.72,199.72,0,0,0,3,31.65,158.74,158.74,0,0,0,8.62,31,114.75,114.75,0,0,0,16.16,28.57,80.83,80.83,0,0,0,26,21.74,84.42,84.42,0,0,0,15.85,6.2,110.34,110.34,0,0,0,16.43,3.36,141.76,141.76,0,0,0,16.57,1c5.51,0,11-.34,16.47-.91a169.8,169.8,0,0,0,62.55-19.72,142.53,142.53,0,0,0,27.4-19.43L-497-1094c1-1,2-2.07,3-3.11l3-3.14c1-1.06,1.85-2.24,2.78-3.36l2.74-3.41,2.51-3.62c.81-1.22,1.71-2.39,2.43-3.67l2.22-3.8c.36-.64.74-1.27,1.09-1.91l1-2,1.93-3.91c.6-1.31,1.14-2.61,1.7-3.92s1.14-2.63,1.61-3.92l1.48-3.88c.49-1.3.9-2.54,1.36-3.8l2.58-7.41c3.31-9.62,6.75-18,11.47-25.66a99.63,99.63,0,0,1,17.29-20.76,118.78,118.78,0,0,1,22.38-16,155.84,155.84,0,0,1,25.73-11.28,206.82,206.82,0,0,1,27.77-7.06,246.57,246.57,0,0,1,28.78-3.48c4.83-.31,9.68-.49,14.5-.51s9.66.08,14.23.37a136.36,136.36,0,0,1,26.81,4.67,173.05,173.05,0,0,1,26.12,9.59,242.46,242.46,0,0,1,48.45,30.14c30.39,24,56.81,53.75,79.76,85.9A605.45,605.45,0,0,1-63.76-999.51,645.65,645.65,0,0,1-25.44-887.24,588.47,588.47,0,0,1-14.5-829.33c1.28,9.7,2.51,19.39,3.14,29.13.35,4.86.8,9.71,1.07,14.58L-9.7-771q.72,29.22-1.36,58.49c-1.52,19.52-3.91,39-7,58.65s-6.91,39.27-11.08,59.2-8.67,40.14-12.9,60.92-8.18,42.14-10.86,64.44a378.74,378.74,0,0,0-2.44,69.52A284.66,284.66,0,0,0-41.65-328l2.94,8.77,3.43,8.55,3.49,8.53,4,8.26,4,8.25c1.43,2.67,2.94,5.29,4.41,7.94l4.46,7.91c1.49,2.65,3.16,5.13,4.74,7.7,5.54,8.78,11.52,17.25,17.86,25.41A210.42,210.42,0,0,0,0-180.54,209.87,209.87,0,0,0,70.92-23.06,419.39,419.39,0,0,1,23.28,49.61C2.35,75.22-21.84,98-48.45,116.12c-6.63,4.59-13.48,8.7-20.38,12.67-1.73,1-3.49,1.86-5.24,2.8s-3.48,1.92-5.26,2.74l-5.32,2.55c-.89.42-1.77.87-2.66,1.26L-90,139.29a195.37,195.37,0,0,1-43.82,13.65c-1.84.31-3.69.69-5.53,1l-5.53.69c-.93.11-1.85.26-2.77.33l-2.76.19c-1.83.12-3.68.3-5.51.39l-5.49.09c-.91,0-1.84.07-2.74,0l-2.72-.11c-1.82-.09-3.64-.1-5.45-.23l-5.4-.52a142,142,0,0,1-21.32-4,152.34,152.34,0,0,1-20.76-7.52c-13.66-6-26.68-14.44-39-24.32a244.44,244.44,0,0,1-34.15-34.43C-313.89,58.87-331,28.92-344.43-2.81A435.09,435.09,0,0,1-373-102.48a372.37,372.37,0,0,1-4.67-51.44,273.33,273.33,0,0,1,3.6-50.45,185.25,185.25,0,0,1,5.74-23.8q1.82-5.75,4-11.21c1.53-3.66,3-7,5-10.85,3.95-7.66,8.69-16.26,13-25s8.35-17.85,11.92-27q2.67-6.87,5.09-13.8l2.33-6.92,2.17-6.73c2.89-9,5.62-18.23,8.12-27.48a451.18,451.18,0,0,0,11.72-56.7c2.57-19.33,3.8-39.18,1.61-59.6a136.68,136.68,0,0,0-6.81-30.75,92.19,92.19,0,0,0-16.35-29,90.15,90.15,0,0,0-25.82-20.54,129.13,129.13,0,0,0-29-11.22c-19.67-5.09-39.49-6.35-58.92-5.48a257.26,257.26,0,0,0-28.89,3,280.32,280.32,0,0,0-28.23,6A285.61,285.61,0,0,0-551-541.3a257.91,257.91,0,0,0-48.19,30.84,219.21,219.21,0,0,0-39.35,41.39,193.1,193.1,0,0,0-15,24.31,191.36,191.36,0,0,0-11.29,26.08,218,218,0,0,0-7.53,27.26,232.83,232.83,0,0,0-3.86,27.87,265,265,0,0,0,1.69,55.83A289.93,289.93,0,0,0-662-253.63,288,288,0,0,1-671.44-308a260.37,260.37,0,0,1,1.35-54.85,224.4,224.4,0,0,1,5.24-26.79,208.85,208.85,0,0,1,8.65-25.72,180.69,180.69,0,0,1,12.08-24.14,181,181,0,0,1,15.32-22.08,205.55,205.55,0,0,1,38.95-36.69,241.49,241.49,0,0,1,46.58-26.3c8.2-3.52,16.58-6.62,25.08-9.3s17.14-4.9,25.84-6.71a254.59,254.59,0,0,1,26.27-4.08A230.61,230.61,0,0,1-439.72-546c17.49.16,34.89,2.37,50.8,7.47a100.47,100.47,0,0,1,22.11,10,60.08,60.08,0,0,1,16.58,14.68c8.53,11.27,12.46,26.82,13.31,43.22s-1.05,33.72-4.31,50.85a413.92,413.92,0,0,1-13.6,51.18q-4.2,12.69-9,25.25l-2.44,6.35-2.44,6.09q-2.49,6-5.17,11.95c-3.59,7.88-7.53,15.52-11.77,23.1s-8.86,15-13.87,23.48c-2.53,4.26-5.12,9.17-7.4,13.93s-4.33,9.66-6.19,14.55a235.75,235.75,0,0,0-8.94,29.62,324.19,324.19,0,0,0-7.67,59.71,426.91,426.91,0,0,0,2.05,59.15A493.41,493.41,0,0,0-401.6,19.31c13.32,37.14,31.13,73.19,55.22,106.28A313.56,313.56,0,0,0-305,172.12c15.71,14.18,33.25,27.1,52.91,37.18a226.33,226.33,0,0,0,30.65,13.1,216,216,0,0,0,32.7,8.18l8.34,1.29c2.79.35,5.58.58,8.37.86l4.19.39c1.4.12,2.79.14,4.19.21l8.37.33c2.78,0,5.56,0,8.34-.08l4.17-.07c1.39,0,2.75-.16,4.14-.24l8.27-.57c2.74-.25,5.46-.61,8.19-.92a276.16,276.16,0,0,0,62.87-15.62l3.76-1.38c1.25-.47,2.46-1,3.7-1.5l7.36-3c2.47-1,4.82-2.16,7.24-3.25s4.82-2.19,7.19-3.34c9.42-4.7,18.7-9.63,27.61-15.06C33.31,167,65,140.18,92.57,110.06a514.42,514.42,0,0,0,64.15-87.12,210.5,210.5,0,0,0,53.72,6.93,210.3,210.3,0,0,0,57.79-8A514.44,514.44,0,0,0,333,110.06c27.6,30.12,59.27,57,95,78.53C437,194,446.26,199,455.68,203.65c2.36,1.15,4.79,2.23,7.18,3.34s4.77,2.26,7.24,3.25l7.36,3c1.24.5,2.45,1,3.7,1.5l3.76,1.38a276.16,276.16,0,0,0,62.87,15.62c2.73.31,5.45.67,8.19.92l8.27.57c1.39.08,2.76.2,4.14.24l4.17.07c2.79,0,5.56.1,8.34.08l8.37-.33c1.4-.07,2.79-.09,4.19-.21l4.19-.39c2.79-.28,5.58-.51,8.37-.86l8.34-1.29a216,216,0,0,0,32.7-8.18,226.33,226.33,0,0,0,30.65-13.1c19.66-10.08,37.2-23,52.91-37.18A314.2,314.2,0,0,0,772,125.59c24.08-33.09,41.89-69.14,55.21-106.28A493.41,493.41,0,0,0,853.27-95.43a426.91,426.91,0,0,0,2.05-59.15,324.19,324.19,0,0,0-7.67-59.71,235.75,235.75,0,0,0-8.94-29.62c-1.86-4.89-3.91-9.75-6.19-14.55s-4.87-9.67-7.39-13.93c-5-8.51-9.63-15.86-13.88-23.48s-8.18-15.22-11.77-23.1q-2.68-5.91-5.17-11.95L791.87-337l-2.44-6.35q-4.81-12.58-9-25.25a413.92,413.92,0,0,1-13.6-51.18c-3.26-17.13-5.18-34.39-4.31-50.85s4.78-31.95,13.31-43.22a60.08,60.08,0,0,1,16.58-14.68,100.47,100.47,0,0,1,22.11-10c15.91-5.1,33.31-7.31,50.8-7.47a230.61,230.61,0,0,1,26.36,1.25,254.59,254.59,0,0,1,26.27,4.08q13,2.71,25.84,6.71c8.5,2.68,16.88,5.78,25.08,9.3a241.19,241.19,0,0,1,46.58,26.3,205.55,205.55,0,0,1,39,36.69,181,181,0,0,1,15.32,22.08,180.69,180.69,0,0,1,12.08,24.14,208.85,208.85,0,0,1,8.65,25.72,224.4,224.4,0,0,1,5.24,26.79A260.37,260.37,0,0,1,1097-308a287.25,287.25,0,0,1-9.47,54.42,289.93,289.93,0,0,0,12.52-54.09,265,265,0,0,0,1.69-55.83,232.83,232.83,0,0,0-3.86-27.87,216.3,216.3,0,0,0-7.53-27.26,191.36,191.36,0,0,0-11.29-26.08,193.1,193.1,0,0,0-14.95-24.31,219.21,219.21,0,0,0-39.35-41.39A257.91,257.91,0,0,0,976.6-541.3a285.61,285.61,0,0,0-53.69-20.21,280.32,280.32,0,0,0-28.23-6,257.26,257.26,0,0,0-28.89-3c-19.43-.87-39.25.39-58.91,5.48a129,129,0,0,0-29,11.22,90.15,90.15,0,0,0-25.82,20.54,92.19,92.19,0,0,0-16.35,29,136.11,136.11,0,0,0-6.8,30.75c-2.2,20.42-1,40.27,1.6,59.6a451.18,451.18,0,0,0,11.72,56.7c2.5,9.25,5.23,18.43,8.12,27.48l2.17,6.73,2.33,6.92q2.42,6.93,5.09,13.8c3.57,9.17,7.61,18.21,11.93,27s9,17.37,13,25c2,3.81,3.49,7.19,5,10.85s2.82,7.38,4,11.21a185.25,185.25,0,0,1,5.74,23.8,273.33,273.33,0,0,1,3.6,50.45,372.37,372.37,0,0,1-4.67,51.44A435.09,435.09,0,0,1,770-2.81c-13.38,31.73-30.53,61.68-51.49,87.28a243.9,243.9,0,0,1-34.15,34.43c-12.31,9.88-25.33,18.31-39,24.32a152.34,152.34,0,0,1-20.76,7.52,142,142,0,0,1-21.32,4l-5.4.52c-1.81.13-3.63.14-5.45.23l-2.72.11c-.9,0-1.83,0-2.74,0l-5.49-.09c-1.83-.09-3.68-.27-5.51-.39l-2.76-.19c-.92-.07-1.84-.22-2.77-.33l-5.53-.69c-1.84-.27-3.69-.65-5.53-1a195.37,195.37,0,0,1-43.82-13.65l-2.69-1.15c-.89-.39-1.77-.84-2.66-1.26l-5.32-2.55c-1.78-.82-3.51-1.84-5.26-2.74s-3.51-1.83-5.24-2.8c-6.9-4-13.75-8.08-20.38-12.67-26.61-18.14-50.8-40.9-71.73-66.51A420.42,420.42,0,0,1,353.19-26a209.85,209.85,0,0,0,67.66-154.57,210.65,210.65,0,0,0-7.5-55.82c6.45-8.28,12.53-16.86,18.15-25.78,1.58-2.57,3.25-5.05,4.73-7.7l4.47-7.91c1.47-2.65,3-5.27,4.41-7.94l4-8.25,3.95-8.26,3.49-8.53,3.44-8.55,2.94-8.77a284.66,284.66,0,0,0,13.71-71.75,377.84,377.84,0,0,0-2.45-69.52c-2.68-22.3-6.64-43.67-10.85-64.44s-8.73-41-12.9-60.92-8-39.6-11.09-59.2-5.5-39.13-7-58.65-1.84-39-1.35-58.49l.59-14.6c.27-4.87.72-9.72,1.07-14.58.63-9.74,1.86-19.43,3.14-29.13a588.47,588.47,0,0,1,10.94-57.91A646.45,646.45,0,0,1,485-999.51a606.8,606.8,0,0,1,58.64-103.33c23-32.15,49.38-61.92,79.76-85.9,15.19-11.93,31.39-22.33,48.46-30.14a172.66,172.66,0,0,1,26.12-9.59,136.36,136.36,0,0,1,26.81-4.67c4.56-.29,9.42-.4,14.23-.37s9.67.2,14.5.51a246.83,246.83,0,0,1,28.78,3.48,206.82,206.82,0,0,1,27.77,7.06,155.37,155.37,0,0,1,25.72,11.28,118.85,118.85,0,0,1,22.39,16,99.63,99.63,0,0,1,17.29,20.76c4.71,7.64,8.16,16,11.47,25.66l2.58,7.41c.45,1.26.87,2.5,1.36,3.8l1.48,3.88c.47,1.29,1,2.61,1.6,3.92s1.11,2.61,1.7,3.92l1.94,3.91,1,2c.35.64.73,1.27,1.09,1.91l2.22,3.8c.72,1.28,1.62,2.45,2.43,3.67l2.5,3.62,2.74,3.41c.93,1.12,1.81,2.3,2.79,3.36l3,3.14c1,1,2,2.11,3,3.11l3.12,2.92a142.46,142.46,0,0,0,27.39,19.43,169.91,169.91,0,0,0,62.56,19.72c5.46.57,11,.87,16.47.91a141.45,141.45,0,0,0,16.56-1,109.83,109.83,0,0,0,16.43-3.36,83.89,83.89,0,0,0,15.85-6.2,80.86,80.86,0,0,0,26-21.74,114.4,114.4,0,0,0,16.15-28.57,157.36,157.36,0,0,0,8.62-31,198.57,198.57,0,0,0,3-31.65A264.88,264.88,0,0,0,1128.87-1206.06ZM209.88-1.83a178.5,178.5,0,0,1-178.5-178.5,178.5,178.5,0,0,1,178.5-178.5,178.5,178.5,0,0,1,178.5,178.5A178.5,178.5,0,0,1,209.88-1.83Z" transform="translate(709.16 1350.83)"/>
</g>
</svg>