<svg id="Laag_1" data-name="Laag 1" xmlns="http://www.w3.org/2000/svg" viewBox="0 0 1694.83 284.53">
<defs><style>.cls-1{fill:#1a1a1a;}.cls-2{fill:#4d4d4d;}</style></defs>
<path fill="#1a1a1a" class="cls-1" d="M-341.33-693.64H-158.7v59.5H-270.26V-592h95v59.5h-95v47.93h115.7v59.5H-341.33Z" transform="translate(608.16 704.64)"/>
<path fill="#1a1a1a" class="cls-1" d="M-104.15-529.19V-693.64h71.06v172.71c0,23.14,7,39.67,29.76,39.67s30.57-16.53,30.57-39.67V-693.64H95.83v164.45c0,66.93-28.92,109.08-99.16,109.08S-104.15-462.26-104.15-529.19Z" transform="translate(608.16 704.64)"/>
<path fill="#1a1a1a" class="cls-1" d="M448.7-693.64h85.94l81,268.57h-75.2L510.27-555.63c-5.79-25.62-13.64-57.85-19.42-85.12h-1.66c-5.78,27.27-12.81,59.5-18.59,85.12L440.44-425.07H367.72ZM426-537H556.54v54.95H426Z" transform="translate(608.16 704.64)"/>
<path fill="#1a1a1a" class="cls-1" d="M1018.91-693.64V-616c0,5.15.17,10.48.46,15.92v65l-14.1-38.82-45-119.83h-71.9v268.57H956.1v-77.68c0-5.62-.2-11.42-.53-17.31v-64l14.17,38.77,45,120.24h71.89V-693.64Z" transform="translate(608.16 704.64)"/>
<polygon fill="#1a1a1a" class="cls-1" points="1379.15 11 1379.15 55.21 1378.97 55.21 1378.97 167.89 1365.52 130.83 1320.48 11 1248.58 11 1248.58 279.57 1316.35 279.57 1316.35 220.02 1316.5 220.02 1316.5 122.45 1329.98 159.34 1375.02 279.57 1446.91 279.57 1446.91 11 1379.15 11"/>
<polygon fill="#1a1a1a" class="cls-1" points="882.08 11 860.18 98.6 852.74 133.31 851.09 133.31 843.65 98.6 821.75 11 749.45 11 749.45 279.57 807.29 279.57 807.29 234.65 807.43 234.65 807.43 109.23 820.51 159.75 835.39 208.51 866.79 208.51 880.84 159.75 895.15 109.53 895.15 243.95 895.72 243.95 895.72 279.57 954.39 279.57 954.39 11 882.08 11"/>
<path fill="#1a1a1a" class="cls-1" d="M-468.59-693.64V-616c0,6.07.23,12.4.61,18.86v62.53l-14.25-39.24-45-119.83h-71.9v268.57h67.76v-77.68c0-4.69-.14-9.51-.38-14.4v-66.51l14,38.35,45,120.24h71.89V-693.64Z" transform="translate(608.16 704.64)"/>
<path fill="#4d4d4d" class="cls-2" d="M-350.33-704.64H-167.7v59.5H-279.26V-603h95v59.5h-95v47.93h115.7v59.5H-350.33Z" transform="translate(608.16 704.64)"/>
<path fill="#4d4d4d" class="cls-2" d="M-113.15-540.19V-704.64h71.06v172.71c0,23.14,7,39.67,29.76,39.67s30.57-16.53,30.57-39.67V-704.64H86.83v164.45c0,66.93-28.92,109.08-99.16,109.08S-113.15-473.26-113.15-540.19Z" transform="translate(608.16 704.64)"/>
<path fill="#4d4d4d" class="cls-2" d="M439.7-704.64h85.94l81,268.57h-75.2L501.27-566.63c-5.79-25.62-13.64-57.85-19.42-85.12h-1.66c-5.78,27.27-12.81,59.5-18.59,85.12L431.44-436.07H358.72ZM417-548H547.54v54.95H417Z" transform="translate(608.16 704.64)"/>
<path fill="#4d4d4d" class="cls-2" d="M1009.91-704.64V-627c0,5.15.17,10.48.46,15.92v65l-14.1-38.82-45-119.83h-71.9v268.57H947.1v-77.68c0-5.62-.2-11.42-.53-17.31v-64l14.17,38.77,45,120.24h71.89V-704.64Z" transform="translate(608.16 704.64)"/>
<polygon fill="#4d4d4d" class="cls-2" points="1370.15 0 1370.15 44.21 1369.97 44.21 1369.97 156.89 1356.52 119.83 1311.48 0 1239.58 0 1239.58 268.57 1307.35 268.57 1307.35 209.02 1307.5 209.02 1307.5 111.45 1320.98 148.34 1366.02 268.57 1437.91 268.57 1437.91 0 1370.15 0"/>
<polygon fill="#4d4d4d" class="cls-2" points="873.08 0 851.18 87.6 843.74 122.31 842.09 122.31 834.65 87.6 812.75 0 740.45 0 740.45 268.57 798.29 268.57 798.29 223.65 798.43 223.65 798.43 98.23 811.51 148.75 826.39 197.51 857.79 197.51 871.84 148.75 886.15 98.53 886.15 232.95 886.72 232.95 886.72 268.57 945.39 268.57 945.39 0 873.08 0"/>
<path fill="#4d4d4d" class="cls-2" d="M-477.59-704.64V-627c0,6.07.23,12.4.61,18.86v62.53l-14.25-39.24-45-119.83h-71.9v268.57h67.76v-77.68c0-4.69-.14-9.51-.38-14.4v-66.51l14,38.35,45,120.24h71.89V-704.64Z" transform="translate(608.16 704.64)"/>
</svg>