<svg id="Laag_1" data-name="Laag 1" xmlns="http://www.w3.org/2000/svg" viewBox="0 0 1694.83 542.77"><defs><style>.cls-1{fill:#1a1a1a;}.cls-2{fill:#4d4d4d;}.cls-3{fill:#662d91;}</style></defs><path class="cls-1" d="M-425.65-386.65h-80.88l11.07-57h229.88l-11.07,57h-80.88L-401-167h-68.11Z" transform="translate(608.16 704.64)"/><path class="cls-1" d="M-212.79-443.69H-28l-11.07,57H-156.59L-166-338.11H-68l-11.07,57H-177l-11.92,57H-68l-11.07,57h-189Z" transform="translate(608.16 704.64)"/><path class="cls-1" d="M33.28-443.69h88.55c55.34,0,100,19.58,100,76.2,0,73.65-65.14,105.15-126.44,105.15H64.78L46.05-167H-22.07ZM95.86-316c36.61,0,57-17.88,57-44.27,0-20.44-13.62-29.8-39.16-29.8H90.32L75.85-316Zm46,13.2L197.6-167H122.25L84.79-274.26Z" transform="translate(608.16 704.64)"/><path class="cls-1" d="M288.71-443.69h88.55c55.34,0,100,19.58,100,76.2,0,73.65-65.13,105.15-126.44,105.15H320.21L301.48-167H233.37ZM351.29-316c36.61,0,57-17.88,57-44.27,0-20.44-13.62-29.8-39.16-29.8H345.75L331.28-316Zm46,13.2L453-167H377.68L340.22-274.26Z" transform="translate(608.16 704.64)"/><path class="cls-1" d="M496.46-276c0-97.91,59.17-172.84,141.34-172.84,57.47,0,94.51,42.57,94.51,114.09,0,97.92-58.75,172.84-140.49,172.84C533.92-161.87,496.46-204.44,496.46-276Zm166-65.56c0-34.06-9.79-48.53-31.51-48.53-36.61,0-64.7,51.08-64.7,120.9,0,34.06,10.21,48.53,32.35,48.53C635.24-220.62,662.49-271.7,662.49-341.52Z" transform="translate(608.16 704.64)"/><path class="cls-1" d="M799.57-443.69h88.55c55.34,0,100,19.58,100,76.2,0,73.65-65.13,105.15-126.44,105.15H831.07L812.34-167H744.23ZM862.15-316c36.61,0,57.05-17.88,57.05-44.27,0-20.44-13.63-29.8-39.17-29.8H856.62L842.14-316Zm46,13.2L963.9-167H888.54L851.08-274.26Z" transform="translate(608.16 704.64)"/><path class="cls-1" d="M-341.33-693.64H-158.7v59.5H-270.26V-592h95v59.5h-95v47.93h115.7v59.5H-341.33Z" transform="translate(608.16 704.64)"/><path class="cls-1" d="M-104.15-529.19V-693.64h71.06v172.71c0,23.14,7,39.67,29.76,39.67s30.57-16.53,30.57-39.67V-693.64H95.83v164.45c0,66.93-28.92,109.08-99.16,109.08S-104.15-462.26-104.15-529.19Z" transform="translate(608.16 704.64)"/><path class="cls-1" d="M448.7-693.64h85.94l81,268.57h-75.2L510.27-555.63c-5.79-25.62-13.64-57.85-19.42-85.12h-1.66c-5.78,27.27-12.81,59.5-18.59,85.12L440.44-425.07H367.72ZM426-537H556.54v54.95H426Z" transform="translate(608.16 704.64)"/><path class="cls-1" d="M1018.91-693.64V-616c0,5.15.17,10.48.46,15.92v65l-14.1-38.82-45-119.83h-71.9v268.57H956.1v-77.68c0-5.62-.2-11.42-.53-17.31v-64l14.17,38.77,45,120.24h71.89V-693.64Z" transform="translate(608.16 704.64)"/><polygon class="cls-1" points="1379.15 11 1379.15 55.21 1378.97 55.21 1378.97 167.89 1365.52 130.83 1320.48 11 1248.58 11 1248.58 279.57 1316.35 279.57 1316.35 220.02 1316.5 220.02 1316.5 122.45 1329.98 159.34 1375.02 279.57 1446.91 279.57 1446.91 11 1379.15 11"/><polygon class="cls-1" points="882.08 11 860.18 98.6 852.74 133.31 851.09 133.31 843.65 98.6 821.75 11 749.45 11 749.45 279.57 807.29 279.57 807.29 234.65 807.43 234.65 807.43 109.23 820.51 159.75 835.39 208.51 866.79 208.51 880.84 159.75 895.15 109.53 895.15 243.95 895.72 243.95 895.72 279.57 954.39 279.57 954.39 11 882.08 11"/><path class="cls-1" d="M-468.59-693.64V-616c0,6.07.23,12.4.61,18.86v62.53l-14.25-39.24-45-119.83h-71.9v268.57h67.76v-77.68c0-4.69-.14-9.51-.38-14.4v-66.51l14,38.35,45,120.24h71.89V-693.64Z" transform="translate(608.16 704.64)"/><path class="cls-2" d="M-350.33-704.64H-167.7v59.5H-279.26V-603h95v59.5h-95v47.93h115.7v59.5H-350.33Z" transform="translate(608.16 704.64)"/><path class="cls-2" d="M-113.15-540.19V-704.64h71.06v172.71c0,23.14,7,39.67,29.76,39.67s30.57-16.53,30.57-39.67V-704.64H86.83v164.45c0,66.93-28.92,109.08-99.16,109.08S-113.15-473.26-113.15-540.19Z" transform="translate(608.16 704.64)"/><path class="cls-2" d="M439.7-704.64h85.94l81,268.57h-75.2L501.27-566.63c-5.79-25.62-13.64-57.85-19.42-85.12h-1.66c-5.78,27.27-12.81,59.5-18.59,85.12L431.44-436.07H358.72ZM417-548H547.54v54.95H417Z" transform="translate(608.16 704.64)"/><path class="cls-2" d="M1009.91-704.64V-627c0,5.15.17,10.48.46,15.92v65l-14.1-38.82-45-119.83h-71.9v268.57H947.1v-77.68c0-5.62-.2-11.42-.53-17.31v-64l14.17,38.77,45,120.24h71.89V-704.64Z" transform="translate(608.16 704.64)"/><polygon class="cls-2" points="1370.15 0 1370.15 44.21 1369.97 44.21 1369.97 156.89 1356.52 119.83 1311.48 0 1239.58 0 1239.58 268.57 1307.35 268.57 1307.35 209.02 1307.5 209.02 1307.5 111.45 1320.98 148.34 1366.02 268.57 1437.91 268.57 1437.91 0 1370.15 0"/><polygon class="cls-2" points="873.08 0 851.18 87.6 843.74 122.31 842.09 122.31 834.65 87.6 812.75 0 740.45 0 740.45 268.57 798.29 268.57 798.29 223.65 798.43 223.65 798.43 98.23 811.51 148.75 826.39 197.51 857.79 197.51 871.84 148.75 886.15 98.53 886.15 232.95 886.72 232.95 886.72 268.57 945.39 268.57 945.39 0 873.08 0"/><path class="cls-2" d="M-477.59-704.64V-627c0,6.07.23,12.4.61,18.86v62.53l-14.25-39.24-45-119.83h-71.9v268.57h67.76v-77.68c0-4.69-.14-9.51-.38-14.4v-66.51l14,38.35,45,120.24h71.89V-704.64Z" transform="translate(608.16 704.64)"/><path class="cls-3" d="M-436.88-399.49h-80.89l11.07-57h229.89l-11.07,57h-80.89l-43.42,219.67h-68.12Z" transform="translate(608.16 704.64)"/><path class="cls-3" d="M-224-456.53H-39.26l-11.07,57h-117.5L-177.2-351h97.92l-11.07,57h-97.91l-11.92,57.05h120.9l-11.07,57h-189Z" transform="translate(608.16 704.64)"/><path class="cls-3" d="M22-456.53h88.55c55.34,0,100,19.58,100,76.2,0,73.65-65.13,105.15-126.43,105.15H53.54L34.81-179.82H-33.3ZM84.62-328.82c36.61,0,57-17.88,57-44.27,0-20.44-13.63-29.8-39.17-29.8H79.09L64.61-328.82Zm46,13.2,55.77,135.8H111L73.55-287.1Z" transform="translate(608.16 704.64)"/><path class="cls-3" d="M277.47-456.53H366c55.34,0,100,19.58,100,76.2,0,73.65-65.13,105.15-126.43,105.15H309l-18.73,95.36H222.13Zm62.58,127.71c36.61,0,57.05-17.88,57.05-44.27,0-20.44-13.63-29.8-39.17-29.8H334.52L320-328.82Zm46,13.2,55.77,135.8H366.45L329-287.1Z" transform="translate(608.16 704.64)"/><path class="cls-3" d="M485.22-288.8c0-97.92,59.18-172.84,141.34-172.84,57.47,0,94.51,42.57,94.51,114.09,0,97.91-58.75,172.84-140.49,172.84C522.69-174.71,485.22-217.28,485.22-288.8Zm166-65.56c0-34.06-9.79-48.53-31.5-48.53C583.14-402.89,555-351.81,555-282c0,34.06,10.22,48.53,32.35,48.53C624-233.46,651.25-284.54,651.25-354.36Z" transform="translate(608.16 704.64)"/><path class="cls-3" d="M788.33-456.53h88.55c55.35,0,100,19.58,100,76.2,0,73.65-65.14,105.15-126.44,105.15H819.84L801.1-179.82H733Zm62.58,127.71c36.62,0,57.05-17.88,57.05-44.27,0-20.44-13.62-29.8-39.17-29.8H845.38l-14.47,74.07Zm46,13.2,55.77,135.8H877.31L839.84-287.1Z" transform="translate(608.16 704.64)"/></svg>