<svg id="Laag_1" data-name="Laag 1" xmlns="http://www.w3.org/2000/svg" viewBox="0 0 356.62 221.81">
<defs><style>.cls-1{fill:#331a49;}</style></defs>
<path class="cls-1" d="M204.76,174" transform="translate(-25.94 -138)"/>
<circle fill="currentColor" class="cls-1" cx="120.6" cy="84.82" r="15.8"/>
<path fill="currentColor" class="cls-1" d="M172.33,222.82l-.17,136.61h31.6l.85-146v-2.23a41.37,41.37,0,0,1,82.74,0v2.34L287,359.81H318.6V344l.36-62.15.13-7.55v-6a47.69,47.69,0,0,0,63.48-45h0L351,223.27h-.51a15.8,15.8,0,0,1-31.6,0v-.69l.11-1.27v-10.1A73.21,73.21,0,0,0,245.75,138h-.38a73.22,73.22,0,0,0-64.47,38.48h0a57.06,57.06,0,0,0-33.78-11h-.21a57.34,57.34,0,0,0-57.34,57.34v.31l0,85.74.11,2.94a15.8,15.8,0,1,1-31.6,0l-32.12.06a47.67,47.67,0,1,0,95.33,0l-.12-2.54,0-86v-.53a25.57,25.57,0,1,1,51.14,0" transform="translate(-25.94 -138)"/>
<circle fill-opacity="0.5" class="cls-1" cx="120.6" cy="84.82" r="15.8"/>
<path fill-opacity="0.5" class="cls-1" d="M172.33,222.82l-.17,136.61h31.6l.85-146v-2.23a41.37,41.37,0,0,1,82.74,0v2.34L287,359.81H318.6V344l.36-62.15.13-7.55v-6a47.69,47.69,0,0,0,63.48-45h0L351,223.27h-.51a15.8,15.8,0,0,1-31.6,0v-.69l.11-1.27v-10.1A73.21,73.21,0,0,0,245.75,138h-.38a73.22,73.22,0,0,0-64.47,38.48h0a57.06,57.06,0,0,0-33.78-11h-.21a57.34,57.34,0,0,0-57.34,57.34v.31l0,85.74.11,2.94a15.8,15.8,0,1,1-31.6,0l-32.12.06a47.67,47.67,0,1,0,95.33,0l-.12-2.54,0-86v-.53a25.57,25.57,0,1,1,51.14,0" transform="translate(-25.94 -138)"/>
</svg>