<svg id="Laag_1" data-name="Laag 1" xmlns="http://www.w3.org/2000/svg" viewBox="0 0 1505.93 299.77">
<defs><style>.cls-1{fill:#1a1a1a;}.cls-2{fill:#662d91;}</style></defs>
<path fill="#1a1a1a" class="cls-1" d="M-425.65-386.65h-80.88l11.07-57h229.88l-11.07,57h-80.88L-401-167h-68.11Z" transform="translate(517.77 461.64)"/>
<path fill="#1a1a1a" class="cls-1" d="M-212.79-443.69H-28l-11.07,57H-156.59L-166-338.11H-68l-11.07,57H-177l-11.92,57H-68l-11.07,57h-189Z" transform="translate(517.77 461.64)"/>
<path fill="#1a1a1a" class="cls-1" d="M33.28-443.69h88.55c55.34,0,100,19.58,100,76.2,0,73.65-65.14,105.15-126.44,105.15H64.78L46.05-167H-22.07ZM95.86-316c36.61,0,57-17.88,57-44.27,0-20.44-13.62-29.8-39.16-29.8H90.32L75.85-316Zm46,13.2L197.6-167H122.25L84.79-274.26Z" transform="translate(517.77 461.64)"/>
<path fill="#1a1a1a" class="cls-1" d="M288.71-443.69h88.55c55.34,0,100,19.58,100,76.2,0,73.65-65.13,105.15-126.44,105.15H320.21L301.48-167H233.37ZM351.29-316c36.61,0,57-17.88,57-44.27,0-20.44-13.62-29.8-39.16-29.8H345.75L331.28-316Zm46,13.2L453-167H377.68L340.22-274.26Z" transform="translate(517.77 461.64)"/>
<path fill="#1a1a1a" class="cls-1" d="M496.46-276c0-97.91,59.17-172.84,141.34-172.84,57.47,0,94.51,42.57,94.51,114.09,0,97.92-58.75,172.84-140.49,172.84C533.92-161.87,496.46-204.44,496.46-276Zm166-65.56c0-34.06-9.79-48.53-31.51-48.53-36.61,0-64.7,51.08-64.7,120.9,0,34.06,10.21,48.53,32.35,48.53C635.24-220.62,662.49-271.7,662.49-341.52Z" transform="translate(517.77 461.64)"/>
<path fill="#1a1a1a" class="cls-1" d="M799.57-443.69h88.55c55.34,0,100,19.58,100,76.2,0,73.65-65.13,105.15-126.44,105.15H831.07L812.34-167H744.23ZM862.15-316c36.61,0,57.05-17.88,57.05-44.27,0-20.44-13.63-29.8-39.17-29.8H856.62L842.14-316Zm46,13.2L963.9-167H888.54L851.08-274.26Z" transform="translate(517.77 461.64)"/>
<path fill="currentColor" class="cls-2" d="M-436.88-399.49h-80.89l11.07-57h229.89l-11.07,57h-80.89l-43.42,219.67h-68.12Z" transform="translate(517.77 461.64)"/>
<path fill="currentColor" class="cls-2" d="M-224-456.53H-39.26l-11.07,57h-117.5L-177.2-351h97.92l-11.07,57h-97.91l-11.92,57.05h120.9l-11.07,57h-189Z" transform="translate(517.77 461.64)"/>
<path fill="currentColor" class="cls-2" d="M22-456.53h88.55c55.34,0,100,19.58,100,76.2,0,73.65-65.13,105.15-126.43,105.15H53.54L34.81-179.82H-33.3ZM84.62-328.82c36.61,0,57-17.88,57-44.27,0-20.44-13.63-29.8-39.17-29.8H79.09L64.61-328.82Zm46,13.2,55.77,135.8H111L73.55-287.1Z" transform="translate(517.77 461.64)"/>
<path fill="currentColor" class="cls-2" d="M277.47-456.53H366c55.34,0,100,19.58,100,76.2,0,73.65-65.13,105.15-126.43,105.15H309l-18.73,95.36H222.13Zm62.58,127.71c36.61,0,57.05-17.88,57.05-44.27,0-20.44-13.63-29.8-39.17-29.8H334.52L320-328.82Zm46,13.2,55.77,135.8H366.45L329-287.1Z" transform="translate(517.77 461.64)"/>
<path fill="currentColor" class="cls-2" d="M485.22-288.8c0-97.92,59.18-172.84,141.34-172.84,57.47,0,94.51,42.57,94.51,114.09,0,97.91-58.75,172.84-140.49,172.84C522.69-174.71,485.22-217.28,485.22-288.8Zm166-65.56c0-34.06-9.79-48.53-31.5-48.53C583.14-402.89,555-351.81,555-282c0,34.06,10.22,48.53,32.35,48.53C624-233.46,651.25-284.54,651.25-354.36Z" transform="translate(517.77 461.64)"/>
<path fill="currentColor" class="cls-2" d="M788.33-456.53h88.55c55.35,0,100,19.58,100,76.2,0,73.65-65.14,105.15-126.44,105.15H819.84L801.1-179.82H733Zm62.58,127.71c36.62,0,57.05-17.88,57.05-44.27,0-20.44-13.62-29.8-39.17-29.8H845.38l-14.47,74.07Zm46,13.2,55.77,135.8H877.31L839.84-287.1Z" transform="translate(517.77 461.64)"/>
</svg>