<svg id="Laag_1" data-name="Laag 1" xmlns="http://www.w3.org/2000/svg" viewBox="0 0 420.81 420.81">
<defs><style>.cls-1{fill:currentColor;}.cls-2{opacity:0.5;}</style></defs>
<path fill="currentColor" class="cls-1" d="M210.31.2C94.1.2-.1,94.4-.1,210.61S94.1,421,210.31,421s210.41-94.2,210.41-210.4S326.51.2,210.31.2Zm19.77,380.69c-31.63,1.74-61-6.85-79.87-17.32a146.69,146.69,0,0,1-47.68-41.89A148.28,148.28,0,0,1,90.06,167.44c1.28-2.42,2.48-5,3.87-7.21.68-1.15,1.31-2.33,2-3.46l2.19-3.35c.7-1.15,1.52-2.21,2.3-3.29s1.54-2.19,2.38-3.23c1.69-2.07,3.32-4.2,5.15-6.15a117.3,117.3,0,0,1,53.87-34.33,119.94,119.94,0,0,1,64.67-1.33,129.22,129.22,0,0,1,15.63,5.25c1.3.47,2.52,1.11,3.79,1.66s2.54,1.09,3.75,1.76c2.45,1.28,4.95,2.51,7.22,3.9A97.51,97.51,0,0,1,270.07,127a96.64,96.64,0,0,1,20.66,24.79,97.4,97.4,0,0,1,6.88,14.79,96,96,0,0,1,.62,64.61,101.35,101.35,0,0,1-6.74,15.2c-1.45,2.28-2.81,4.63-4.3,6.89l-2.48,3.22-1.23,1.62a11.51,11.51,0,0,1-1.31,1.56A76.48,76.48,0,0,1,256.08,279a76.51,76.51,0,0,1-64.35-.25,61.91,61.91,0,0,1-7.36-3.88c-1.14-.74-2.36-1.39-3.46-2.19l-3.26-2.5a27.28,27.28,0,0,1-3.09-2.7c-1-1-2.05-1.83-3-2.85a61.44,61.44,0,0,1-5.2-6.39A62,62,0,0,1,161,194.75c.65-1.24,1.17-2.59,1.91-3.76l2.17-3.53a53.9,53.9,0,0,1,5.28-6.4,50.78,50.78,0,0,1,13.34-9.9,51.53,51.53,0,0,1,32.88-4.44,53.51,53.51,0,0,1,15.81,6.16,40.29,40.29,0,0,1,12.24,11.42,41.13,41.13,0,0,1,6.62,15.55,40.51,40.51,0,0,1-.31,17.05,39.74,39.74,0,0,1-7.28,15.47,13.64,13.64,0,0,1-1.41,1.62c-.49.52-1,1.06-1.48,1.56a36.07,36.07,0,0,1-3.31,2.73,33,33,0,0,1-24.69,6,31.92,31.92,0,0,1-15.83-7.07,27.18,27.18,0,0,1-6.4-32.42,22.06,22.06,0,0,1,13.19-11.56,22.39,22.39,0,0,1,17.74,1.71,22.77,22.77,0,0,0-18-2.41A23.15,23.15,0,0,0,189.2,204.1a29,29,0,0,0-3.14,18.47,29.84,29.84,0,0,0,8.87,16.79c9.58,8.81,24,11.48,36.43,7.2a37.69,37.69,0,0,0,8.78-4.37,39.13,39.13,0,0,0,3.93-3c.61-.55,1.19-1.14,1.78-1.72a15.94,15.94,0,0,0,1.69-1.8l1.59-1.91c.51-.65.94-1.36,1.41-2a34.87,34.87,0,0,0,2.48-4.25,44.92,44.92,0,0,0,3.57-9.14,47,47,0,0,0,1.13-19.61,48,48,0,0,0-21.06-32.67,62.19,62.19,0,0,0-18.18-7.93,61.16,61.16,0,0,0-39.25,3.76,61.79,61.79,0,0,0-16.67,11.36,65.91,65.91,0,0,0-6.76,7.59L153,185.06c-.95,1.42-1.63,2.92-2.45,4.38a75.3,75.3,0,0,0-8.75,38.86,76.8,76.8,0,0,0,12.55,38.19c7.31,11.49,18.36,20.71,30.36,26.72a94.6,94.6,0,0,0,38.94,10.32,96.79,96.79,0,0,0,73.75-30,17.53,17.53,0,0,0,1.75-1.91l1.65-2,3.31-4c2-2.78,3.89-5.69,5.83-8.56a123.08,123.08,0,0,0,9-18.21A118.22,118.22,0,0,0,327,199a119.9,119.9,0,0,0-5.79-40.49A118.87,118.87,0,0,0,302.08,122a119,119,0,0,0-30.47-28A150.83,150.83,0,0,0,82.23,116.74c-2.47,2.46-4.72,5.12-7,7.75-1.14,1.31-2.18,2.71-3.28,4.07s-2.18,2.73-3.16,4.17l-3,4.27c-1,1.43-1.9,2.92-2.84,4.39-2,2.94-3.53,5.9-5.24,8.87a185.44,185.44,0,0,0-15.84,37.8c-.63,2.14-1.21,4.3-1.76,6.47a170.58,170.58,0,0,1,340.3,17C380.36,298.89,314.71,370.85,230.08,380.89Z" transform="translate(0.1 -0.2)"/>
<path class="cls-2" d="M210.31.2C94.1.2-.1,94.4-.1,210.61S94.1,421,210.31,421s210.41-94.2,210.41-210.4S326.51.2,210.31.2Zm19.77,380.69c-31.63,1.74-61-6.85-79.87-17.32a146.69,146.69,0,0,1-47.68-41.89A148.28,148.28,0,0,1,90.06,167.44c1.28-2.42,2.48-5,3.87-7.21.68-1.15,1.31-2.33,2-3.46l2.19-3.35c.7-1.15,1.52-2.21,2.3-3.29s1.54-2.19,2.38-3.23c1.69-2.07,3.32-4.2,5.15-6.15a117.3,117.3,0,0,1,53.87-34.33,119.94,119.94,0,0,1,64.67-1.33,129.22,129.22,0,0,1,15.63,5.25c1.3.47,2.52,1.11,3.79,1.66s2.54,1.09,3.75,1.76c2.45,1.28,4.95,2.51,7.22,3.9A97.51,97.51,0,0,1,270.07,127a96.64,96.64,0,0,1,20.66,24.79,97.4,97.4,0,0,1,6.88,14.79,96,96,0,0,1,.62,64.61,101.35,101.35,0,0,1-6.74,15.2c-1.45,2.28-2.81,4.63-4.3,6.89l-2.48,3.22-1.23,1.62a11.51,11.51,0,0,1-1.31,1.56A76.48,76.48,0,0,1,256.08,279a76.51,76.51,0,0,1-64.35-.25,61.91,61.91,0,0,1-7.36-3.88c-1.14-.74-2.36-1.39-3.46-2.19l-3.26-2.5a27.28,27.28,0,0,1-3.09-2.7c-1-1-2.05-1.83-3-2.85a61.44,61.44,0,0,1-5.2-6.39A62,62,0,0,1,161,194.75c.65-1.24,1.17-2.59,1.91-3.76l2.17-3.53a53.9,53.9,0,0,1,5.28-6.4,50.78,50.78,0,0,1,13.34-9.9,51.53,51.53,0,0,1,32.88-4.44,53.51,53.51,0,0,1,15.81,6.16,40.29,40.29,0,0,1,12.24,11.42,41.13,41.13,0,0,1,6.62,15.55,40.51,40.51,0,0,1-.31,17.05,39.74,39.74,0,0,1-7.28,15.47,13.64,13.64,0,0,1-1.41,1.62c-.49.52-1,1.06-1.48,1.56a36.07,36.07,0,0,1-3.31,2.73,33,33,0,0,1-24.69,6,31.92,31.92,0,0,1-15.83-7.07,27.18,27.18,0,0,1-6.4-32.42,22.06,22.06,0,0,1,13.19-11.56,22.39,22.39,0,0,1,17.74,1.71,22.77,22.77,0,0,0-18-2.41A23.15,23.15,0,0,0,189.2,204.1a29,29,0,0,0-3.14,18.47,29.84,29.84,0,0,0,8.87,16.79c9.58,8.81,24,11.48,36.43,7.2a37.69,37.69,0,0,0,8.78-4.37,39.13,39.13,0,0,0,3.93-3c.61-.55,1.19-1.14,1.78-1.72a15.94,15.94,0,0,0,1.69-1.8l1.59-1.91c.51-.65.94-1.36,1.41-2a34.87,34.87,0,0,0,2.48-4.25,44.92,44.92,0,0,0,3.57-9.14,47,47,0,0,0,1.13-19.61,48,48,0,0,0-21.06-32.67,62.19,62.19,0,0,0-18.18-7.93,61.16,61.16,0,0,0-39.25,3.76,61.79,61.79,0,0,0-16.67,11.36,65.91,65.91,0,0,0-6.76,7.59L153,185.06c-.95,1.42-1.63,2.92-2.45,4.38a75.3,75.3,0,0,0-8.75,38.86,76.8,76.8,0,0,0,12.55,38.19c7.31,11.49,18.36,20.71,30.36,26.72a94.6,94.6,0,0,0,38.94,10.32,96.79,96.79,0,0,0,73.75-30,17.53,17.53,0,0,0,1.75-1.91l1.65-2,3.31-4c2-2.78,3.89-5.69,5.83-8.56a123.08,123.08,0,0,0,9-18.21A118.22,118.22,0,0,0,327,199a119.9,119.9,0,0,0-5.79-40.49A118.87,118.87,0,0,0,302.08,122a119,119,0,0,0-30.47-28A150.83,150.83,0,0,0,82.23,116.74c-2.47,2.46-4.72,5.12-7,7.75-1.14,1.31-2.18,2.71-3.28,4.07s-2.18,2.73-3.16,4.17l-3,4.27c-1,1.43-1.9,2.92-2.84,4.39-2,2.94-3.53,5.9-5.24,8.87a185.44,185.44,0,0,0-15.84,37.8c-.63,2.14-1.21,4.3-1.76,6.47a170.58,170.58,0,0,1,340.3,17C380.36,298.89,314.71,370.85,230.08,380.89Z" transform="translate(0.1 -0.2)"/>
</svg>